<svg width="48" height="48" viewBox="0 0 48 48" fill="none" xmlns="http://www.w3.org/2000/svg">
<path d="M26 42.2001C23.7 42.2001 21.4667 41.7667 19.3 40.9001C17.1333 40.0334 15.25 38.85 13.65 37.35L15.8 35.2001C17.1333 36.4334 18.6917 37.4084 20.475 38.125C22.2583 38.8417 24.1 39.2001 26 39.2001C30.1667 39.2001 33.7417 37.7084 36.725 34.725C39.7083 31.7417 41.2 28.1667 41.2 24C41.2 19.8334 39.7083 16.2584 36.725 13.275C33.7417 10.2917 30.1667 8.80005 26 8.80005C21.8333 8.80005 18.2583 10.2917 15.275 13.275C12.2917 16.2584 10.8 19.8334 10.8 24V24.9L14.3 21.4L16.4 23.5L9.30001 30.6L2.20001 23.5L4.30001 21.4L7.80001 24.9V24C7.80001 21.4667 8.27501 19.1 9.22501 16.9C10.175 14.7 11.475 12.775 13.125 11.125C14.775 9.47505 16.7 8.17505 18.9 7.22505C21.1 6.27505 23.4667 5.80005 26 5.80005C28.5333 5.80005 30.9 6.27505 33.1 7.22505C35.3 8.17505 37.225 9.47505 38.875 11.125C40.525 12.775 41.825 14.7 42.775 16.9C43.725 19.1 44.2 21.4667 44.2 24C44.2 29.0667 42.4333 33.3667 38.9 36.9001C35.3667 40.4334 31.0667 42.2001 26 42.2001Z" fill="white"/>
</svg>
